asdasdasdasd<mxfile host="app.diagrams.net" modified="2023-10-20T16:37:46.108Z" agent="Mozilla/5.0 (Windows NT 10.0; Win64; x64) AppleWebKit/537.36 (KHTML, like Gecko) Chrome/118.0.0.0 Safari/537.36" etag="b-ltsgPPvyq3muth9rEL" version="21.1.8" type="device">
  <diagram name="Сторінка-1" id="goE2crMF3wbnkGzSzIJS">
    <mxGraphModel dx="724" dy="396" grid="1" gridSize="10" guides="1" tooltips="1" connect="1" arrows="1" fold="1" page="1" pageScale="1" pageWidth="827" pageHeight="1169" math="0" shadow="0">
      <root>
        <mxCell id="0" />
        <mxCell id="1" parent="0" />
        <mxCell id="iBeATwE1VwXqMY3gu8DR-4" value="" style="ellipse;whiteSpace=wrap;html=1;aspect=fixed;fillColor=none;dashed=1;dashPattern=8 8;" vertex="1" parent="1">
          <mxGeometry x="130" y="60" width="280" height="280" as="geometry" />
        </mxCell>
        <mxCell id="iBeATwE1VwXqMY3gu8DR-12" value="" style="ellipse;whiteSpace=wrap;html=1;aspect=fixed;fillColor=none;dashed=1;dashPattern=8 8;" vertex="1" parent="1">
          <mxGeometry x="10" y="20" width="280" height="280" as="geometry" />
        </mxCell>
        <mxCell id="iBeATwE1VwXqMY3gu8DR-14" value="" style="ellipse;whiteSpace=wrap;html=1;aspect=fixed;fillColor=none;dashed=1;dashPattern=8 8;" vertex="1" parent="1">
          <mxGeometry x="100" y="140" width="280" height="280" as="geometry" />
        </mxCell>
        <mxCell id="iBeATwE1VwXqMY3gu8DR-16" value="" style="ellipse;whiteSpace=wrap;html=1;aspect=fixed;fillColor=none;dashed=1;dashPattern=8 8;" vertex="1" parent="1">
          <mxGeometry x="260" y="110" width="280" height="280" as="geometry" />
        </mxCell>
        <mxCell id="iBeATwE1VwXqMY3gu8DR-1" value="CPU" style="rounded=0;whiteSpace=wrap;html=1;" vertex="1" parent="1">
          <mxGeometry x="110" y="140" width="80" height="40" as="geometry" />
        </mxCell>
        <mxCell id="iBeATwE1VwXqMY3gu8DR-3" value="S1" style="rounded=0;whiteSpace=wrap;html=1;" vertex="1" parent="1">
          <mxGeometry x="230" y="180" width="80" height="40" as="geometry" />
        </mxCell>
        <mxCell id="iBeATwE1VwXqMY3gu8DR-13" value="S2" style="rounded=0;whiteSpace=wrap;html=1;" vertex="1" parent="1">
          <mxGeometry x="200" y="260" width="80" height="40" as="geometry" />
        </mxCell>
        <mxCell id="iBeATwE1VwXqMY3gu8DR-15" value="S3" style="rounded=0;whiteSpace=wrap;html=1;" vertex="1" parent="1">
          <mxGeometry x="360" y="230" width="80" height="40" as="geometry" />
        </mxCell>
        <mxCell id="iBeATwE1VwXqMY3gu8DR-19" value="Центральний процесорний модуль" style="rounded=0;whiteSpace=wrap;html=1;" vertex="1" parent="1">
          <mxGeometry x="1030" y="150" width="80" height="40" as="geometry" />
        </mxCell>
        <mxCell id="iBeATwE1VwXqMY3gu8DR-20" value="Сенсорний модуль" style="rounded=0;whiteSpace=wrap;html=1;" vertex="1" parent="1">
          <mxGeometry x="1150" y="190" width="80" height="40" as="geometry" />
        </mxCell>
        <mxCell id="iBeATwE1VwXqMY3gu8DR-21" value="" style="ellipse;whiteSpace=wrap;html=1;aspect=fixed;fillColor=none;dashed=1;dashPattern=8 8;" vertex="1" parent="1">
          <mxGeometry x="1050" y="70" width="280" height="280" as="geometry" />
        </mxCell>
        <mxCell id="iBeATwE1VwXqMY3gu8DR-22" value="" style="ellipse;whiteSpace=wrap;html=1;aspect=fixed;fillColor=none;dashed=1;dashPattern=8 8;" vertex="1" parent="1">
          <mxGeometry x="930" y="30" width="280" height="280" as="geometry" />
        </mxCell>
        <mxCell id="iBeATwE1VwXqMY3gu8DR-23" value="Сенсорний модуль" style="rounded=0;whiteSpace=wrap;html=1;" vertex="1" parent="1">
          <mxGeometry x="1130" y="300" width="80" height="40" as="geometry" />
        </mxCell>
        <mxCell id="iBeATwE1VwXqMY3gu8DR-24" value="" style="ellipse;whiteSpace=wrap;html=1;aspect=fixed;fillColor=none;dashed=1;dashPattern=8 8;" vertex="1" parent="1">
          <mxGeometry x="1030" y="180" width="280" height="280" as="geometry" />
        </mxCell>
        <mxCell id="iBeATwE1VwXqMY3gu8DR-25" value="Сенсорний модуль" style="rounded=0;whiteSpace=wrap;html=1;" vertex="1" parent="1">
          <mxGeometry x="1320" y="210" width="80" height="40" as="geometry" />
        </mxCell>
        <mxCell id="iBeATwE1VwXqMY3gu8DR-26" value="" style="ellipse;whiteSpace=wrap;html=1;aspect=fixed;fillColor=none;dashed=1;dashPattern=8 8;" vertex="1" parent="1">
          <mxGeometry x="1220" y="90" width="280" height="280" as="geometry" />
        </mxCell>
        <mxCell id="iBeATwE1VwXqMY3gu8DR-27" value="Сенсорний модуль" style="rounded=0;whiteSpace=wrap;html=1;" vertex="1" parent="1">
          <mxGeometry x="1240" y="340" width="80" height="40" as="geometry" />
        </mxCell>
        <mxCell id="iBeATwE1VwXqMY3gu8DR-28" value="" style="ellipse;whiteSpace=wrap;html=1;aspect=fixed;fillColor=none;dashed=1;dashPattern=8 8;" vertex="1" parent="1">
          <mxGeometry x="1140" y="220" width="280" height="280" as="geometry" />
        </mxCell>
        <mxCell id="iBeATwE1VwXqMY3gu8DR-29" value="" style="endArrow=none;html=1;rounded=0;entryX=1;entryY=1;entryDx=0;entryDy=0;exitX=0;exitY=0.5;exitDx=0;exitDy=0;strokeWidth=5;" edge="1" parent="1" source="iBeATwE1VwXqMY3gu8DR-3" target="iBeATwE1VwXqMY3gu8DR-1">
          <mxGeometry width="50" height="50" relative="1" as="geometry">
            <mxPoint y="340" as="sourcePoint" />
            <mxPoint x="50" y="290" as="targetPoint" />
          </mxGeometry>
        </mxCell>
        <mxCell id="iBeATwE1VwXqMY3gu8DR-30" value="" style="endArrow=none;html=1;rounded=0;exitX=0.5;exitY=0;exitDx=0;exitDy=0;entryX=0.5;entryY=1;entryDx=0;entryDy=0;strokeWidth=5;" edge="1" parent="1" source="iBeATwE1VwXqMY3gu8DR-13" target="iBeATwE1VwXqMY3gu8DR-3">
          <mxGeometry width="50" height="50" relative="1" as="geometry">
            <mxPoint x="270" y="270" as="sourcePoint" />
            <mxPoint x="320" y="220" as="targetPoint" />
          </mxGeometry>
        </mxCell>
        <mxCell id="iBeATwE1VwXqMY3gu8DR-31" value="" style="endArrow=none;html=1;rounded=0;entryX=0;entryY=0.5;entryDx=0;entryDy=0;exitX=1;exitY=0.5;exitDx=0;exitDy=0;strokeWidth=5;" edge="1" parent="1" source="iBeATwE1VwXqMY3gu8DR-3" target="iBeATwE1VwXqMY3gu8DR-15">
          <mxGeometry width="50" height="50" relative="1" as="geometry">
            <mxPoint x="270" y="270" as="sourcePoint" />
            <mxPoint x="320" y="220" as="targetPoint" />
          </mxGeometry>
        </mxCell>
      </root>
    </mxGraphModel>
  </diagram>
</mxfile>
